<?xml version="1.0" encoding="UTF-8"?>
<svg version="1.1" xmlns="http://www.w3.org/2000/svg" width="1027" height="1027">
<path d="M0 0 C338.91 0 677.82 0 1027 0 C1027 338.91 1027 677.82 1027 1027 C688.09 1027 349.18 1027 0 1027 C0 688.09 0 349.18 0 0 Z " fill="#2B2E33" transform="translate(0,0)"/>
<path d="M0 0 C20.13 0 40.26 0 61 0 C61.16065467 28.6857845 61.16065467 28.6857845 61.20101547 42.98992157 C61.22306805 50.68544044 61.25093691 58.3807834 61.30175781 66.07617188 C61.346355 72.83245811 61.36921671 79.588554 61.37950897 86.34497833 C61.38683258 88.9074426 61.40113118 91.46989787 61.42292023 94.03227997 C61.54669957 109.20858896 60.73639729 123.25485395 57 138 C56.34 138 55.68 138 55 138 C54.814375 139.155 54.62875 140.31 54.4375 141.5 C48.60534963 167.47957891 29.84954146 191.4587397 8.06640625 206.1171875 C-4.69880582 213.95519033 -17.63021596 219.80699311 -32 224 C-33.16015625 224.3609375 -34.3203125 224.721875 -35.515625 225.09375 C-44.20072774 227.35265565 -52.87418964 227.14034817 -61.79013824 227.12304783 C-63.30706083 227.12378802 -64.82398325 227.12496719 -66.34090519 227.12654433 C-70.51540841 227.12961087 -74.68988725 227.12644027 -78.86438865 227.12226619 C-83.4035193 227.11883042 -87.94264749 227.12120309 -92.48177862 227.12284368 C-100.43902453 227.12491758 -108.39626296 227.12327336 -116.353508 227.11920547 C-128.18566388 227.11317346 -140.01781505 227.11286939 -151.8499722 227.11374746 C-171.75299498 227.11506182 -191.65601444 227.11171822 -211.55903625 227.10573006 C-231.26866167 227.09981527 -250.9782857 227.09596456 -270.68791199 227.09487724 C-271.91289262 227.0948085 -273.13787326 227.09473976 -274.39997452 227.09466894 C-280.62090255 227.09433061 -286.84183059 227.09402923 -293.06275862 227.09374207 C-337.13819419 227.09164104 -381.21362795 227.08490196 -425.2890625 227.07543945 C-435.97208658 227.07314857 -446.65511067 227.07087242 -457.33813477 227.06866455 C-458.33198174 227.06845913 -458.33198174 227.06845913 -459.34590643 227.06824955 C-490.14846916 227.06190515 -520.95103204 227.05817978 -551.75359525 227.05512976 C-553.75338904 227.05493169 -555.75318282 227.05473238 -557.7529766 227.05453308 C-571.00574517 227.05321457 -584.25851375 227.05193875 -597.51128233 227.05069422 C-624.50927125 227.04815793 -651.50726015 227.04533668 -678.50524902 227.04234314 C-679.74660291 227.04220585 -680.9879568 227.04206856 -682.26692747 227.04192711 C-746.50764377 227.03479697 -810.74835923 227.02343592 -874.98907471 227.0111084 C-875.89286288 227.01093499 -876.79665105 227.01076159 -877.72782674 227.01058293 C-895.48521785 227.00716831 -913.24260892 227.00356625 -931 227 C-931 203.57 -931 180.14 -931 156 C-914.58021645 155.98786972 -914.58021645 155.98786972 -897.82872009 155.97549438 C-890.40218606 155.96993973 -882.97565203 155.96437591 -875.54911804 155.95875549 C-874.58440186 155.95802546 -873.61968568 155.95729542 -872.62573567 155.95654326 C-808.7628208 155.90817925 -744.8999088 155.85744888 -681.03700256 155.79867554 C-679.80444861 155.79754191 -678.57189466 155.79640829 -677.30199059 155.79524031 C-650.51731691 155.77059069 -623.73264365 155.7454979 -596.9479708 155.71994839 C-583.8133771 155.70742219 -570.6787833 155.69499395 -557.54418945 155.68261719 C-556.23711741 155.68138386 -554.93004537 155.68015054 -553.58336508 155.67887984 C-511.19321366 155.63892736 -468.80306013 155.60544758 -426.41290069 155.57531309 C-382.86303175 155.54432009 -339.31317317 155.50681963 -295.76331709 155.46109388 C-289.61667702 155.45464318 -283.47003688 155.44826712 -277.32339668 155.44193649 C-275.50871962 155.44006404 -275.50871962 155.44006404 -273.65738241 155.43815375 C-254.15830643 155.41822598 -234.6592316 155.40518815 -215.1601485 155.39470672 C-195.57206959 155.38403115 -175.98400789 155.36614496 -156.39594232 155.34083296 C-144.74859002 155.32600299 -133.10126407 155.31676707 -121.45390223 155.31543317 C-113.6811591 155.31399916 -105.90844571 155.30538282 -98.13571609 155.29084408 C-93.70201163 155.28275897 -89.26836561 155.27787468 -84.83465409 155.28172119 C-80.80337363 155.28515726 -76.77221433 155.27946955 -72.74095447 155.26641935 C-71.28951339 155.26333459 -69.83806041 155.26360986 -68.38662156 155.26760875 C-58.49932814 155.34938385 -58.49932814 155.34938385 -49 153 C-47.77023437 152.57460938 -47.77023437 152.57460938 -46.515625 152.140625 C-30.06669963 145.67449572 -16.87083853 136.3857051 -9.07275391 120.05859375 C-7.08408037 115.47331602 -5.39430808 110.79969154 -4 106 C-3.74783218 105.17333328 -3.49566437 104.34666656 -3.2358551 103.49494934 C-0.37096455 92.85385565 -0.52216721 82.33595628 -0.48828125 71.38671875 C-0.47140579 69.32020521 -0.45325177 67.25370176 -0.43388367 65.18721008 C-0.38668874 59.79020338 -0.35668296 54.39323758 -0.33044434 48.99609375 C-0.29520127 42.49794452 -0.23827659 35.99995228 -0.18505096 29.50193024 C-0.10689548 19.66797438 -0.05601893 9.83421894 0 0 Z " fill="#E9EBF1" transform="translate(951,563)"/>
<path d="M0 0 C327.69 0 655.38 0 993 0 C993 23.76 993 47.52 993 72 C665.31 72 337.62 72 0 72 C0 48.24 0 24.48 0 0 Z " fill="#E9EBF0" transform="translate(20,251)"/>
<path d="M0 0 C15.0665625 -0.0309375 15.0665625 -0.0309375 30.4375 -0.0625 C33.6130249 -0.071604 36.7885498 -0.08070801 40.06030273 -0.09008789 C42.55973264 -0.09300677 45.05916302 -0.09555539 47.55859375 -0.09765625 C48.87057739 -0.10277222 50.18256104 -0.10788818 51.53430176 -0.11315918 C53.39182068 -0.11334045 53.39182068 -0.11334045 55.28686523 -0.11352539 C56.36830307 -0.115746 57.44974091 -0.11796661 58.56394958 -0.12025452 C61 0 61 0 62 1 C62.09960152 3.20324974 62.12799757 5.4097349 62.12939453 7.61523438 C62.13114685 8.30627762 62.13289917 8.99732086 62.13470459 9.70930481 C62.13912254 12.00414507 62.13618533 14.29890889 62.1328125 16.59375 C62.13348556 18.18176285 62.13445559 19.76977559 62.13571167 21.35778809 C62.13718857 24.6901955 62.13503436 28.02257616 62.13037109 31.35498047 C62.1246738 35.6359851 62.12795285 39.91692705 62.13394356 44.19792938 C62.1375494 47.47833736 62.13641048 50.75873037 62.13381577 54.03913879 C62.13314656 55.6180675 62.1339747 57.19699754 62.13629532 58.77592468 C62.13882223 60.97890853 62.13498075 63.18178949 62.12939453 65.38476562 C62.12859894 66.64083618 62.12780334 67.89690674 62.12698364 69.19104004 C62 72 62 72 61 73 C59.09756238 73.09391296 57.19161541 73.11743658 55.28686523 73.11352539 C54.04851929 73.11340454 52.81017334 73.11328369 51.53430176 73.11315918 C49.56632629 73.10548523 49.56632629 73.10548523 47.55859375 73.09765625 C46.36045044 73.09664917 45.16230713 73.09564209 43.92785645 73.09460449 C39.4310613 73.08935305 34.93427974 73.07539195 30.4375 73.0625 C20.393125 73.041875 10.34875 73.02125 0 73 C0 48.91 0 24.82 0 0 Z " fill="#E6E8ED" transform="translate(21,562)"/>
<path d="M0 0 C20.13 0 40.26 0 61 0 C61 23.76 61 47.52 61 72 C40.87 72 20.74 72 0 72 C0 48.24 0 24.48 0 0 Z " fill="#EAECF1" transform="translate(951,407)"/>
<path d="M0 0 C20.13 0 40.26 0 61 0 C61 23.76 61 47.52 61 72 C40.87 72 20.74 72 0 72 C0 48.24 0 24.48 0 0 Z " fill="#EAEDF2" transform="translate(21,407)"/>
<path d="M0 0 C17.49 0 34.98 0 53 0 C53 24.09 53 48.18 53 73 C35.51 73 18.02 73 0 73 C0 48.91 0 24.82 0 0 Z " fill="#E5E7EC" transform="translate(699,562)"/>
<path d="M0 0 C17.49 0 34.98 0 53 0 C53 24.09 53 48.18 53 73 C35.51 73 18.02 73 0 73 C0 48.91 0 24.82 0 0 Z " fill="#E6E8ED" transform="translate(866,562)"/>
<path d="M0 0 C17.49 0 34.98 0 53 0 C53 24.09 53 48.18 53 73 C35.51 73 18.02 73 0 73 C0 48.91 0 24.82 0 0 Z " fill="#E5E8ED" transform="translate(448,562)"/>
<path d="M0 0 C17.49 0 34.98 0 53 0 C53 24.09 53 48.18 53 73 C35.51 73 18.02 73 0 73 C0 48.91 0 24.82 0 0 Z " fill="#E5E7EC" transform="translate(114,562)"/>
<path d="M0 0 C0.9215538 0.00222061 1.8431076 0.00444122 2.79258728 0.00672913 C4.37601929 0.0069104 4.37601929 0.0069104 5.99143982 0.00709534 C7.66792603 0.01476929 7.66792603 0.01476929 9.37828064 0.02259827 C10.91010986 0.02410889 10.91010986 0.02410889 12.47288513 0.02565002 C16.3046429 0.03090037 20.13638472 0.04486149 23.96812439 0.05775452 C32.52749939 0.07837952 41.08687439 0.09900452 49.90562439 0.12025452 C49.90562439 24.21025452 49.90562439 48.30025452 49.90562439 73.12025452 C41.34624939 73.14087952 32.78687439 73.16150452 23.96812439 73.18275452 C19.90963196 73.19641052 19.90963196 73.19641052 15.76914978 73.21034241 C13.63886057 73.21326137 11.50857081 73.21580997 9.37828064 73.21791077 C8.26062317 73.22302673 7.1429657 73.2281427 5.99143982 73.2334137 C4.93581848 73.23353455 3.88019714 73.2336554 2.79258728 73.23377991 C1.87103348 73.23600052 0.94947968 73.23822113 0 73.24050903 C-2.09437561 73.12025452 -2.09437561 73.12025452 -3.09437561 72.12025452 C-3.19397713 69.91700478 -3.22237318 67.71051961 -3.22377014 65.50502014 C-3.22552246 64.8139769 -3.22727478 64.12293365 -3.2290802 63.41094971 C-3.23349815 61.11610944 -3.23056094 58.82134563 -3.22718811 56.52650452 C-3.22786117 54.93849167 -3.22883121 53.35047892 -3.23008728 51.76246643 C-3.23156418 48.43005902 -3.22940997 45.09767836 -3.2247467 41.76527405 C-3.21904941 37.48426941 -3.22232846 33.20332747 -3.22831917 28.92232513 C-3.23192501 25.64191715 -3.23078609 22.36152414 -3.22819138 19.08111572 C-3.22752217 17.50218702 -3.22835031 15.92325697 -3.23067093 14.34432983 C-3.23319784 12.14134599 -3.22935636 9.93846503 -3.22377014 7.73548889 C-3.22297455 6.47941833 -3.22217896 5.22334778 -3.22135925 3.92921448 C-3.05165375 0.17521936 -3.05165375 0.17521936 0 0 Z " fill="#E5E7EC" transform="translate(284.09437561035156,561.8797454833984)"/>
<path d="M0 0 C8.559375 -0.020625 17.11875 -0.04125 25.9375 -0.0625 C28.64316162 -0.071604 31.34882324 -0.08070801 34.13647461 -0.09008789 C36.26676382 -0.09300685 38.39705358 -0.09555545 40.52734375 -0.09765625 C41.64500122 -0.10277222 42.76265869 -0.10788818 43.91418457 -0.11315918 C45.49761658 -0.11334045 45.49761658 -0.11334045 47.11303711 -0.11352539 C48.03459091 -0.115746 48.95614471 -0.11796661 49.90562439 -0.12025452 C52 0 52 0 53 1 C53.09960152 3.20324974 53.12799757 5.4097349 53.12939453 7.61523438 C53.13114685 8.30627762 53.13289917 8.99732086 53.13470459 9.70930481 C53.13912254 12.00414507 53.13618533 14.29890889 53.1328125 16.59375 C53.13348556 18.18176285 53.13445559 19.76977559 53.13571167 21.35778809 C53.13718857 24.6901955 53.13503436 28.02257616 53.13037109 31.35498047 C53.1246738 35.6359851 53.12795285 39.91692705 53.13394356 44.19792938 C53.1375494 47.47833736 53.13641048 50.75873037 53.13381577 54.03913879 C53.13314656 55.6180675 53.1339747 57.19699754 53.13629532 58.77592468 C53.13882223 60.97890853 53.13498075 63.18178949 53.12939453 65.38476562 C53.12859894 66.64083618 53.12780334 67.89690674 53.12698364 69.19104004 C53 72 53 72 52 73 C50.37325222 73.09340434 48.74245949 73.11745171 47.11303711 73.11352539 C46.05741577 73.11340454 45.00179443 73.11328369 43.91418457 73.11315918 C42.7965271 73.10804321 41.67886963 73.10292725 40.52734375 73.09765625 C39.50612427 73.09664917 38.48490479 73.09564209 37.43273926 73.09460449 C33.60098149 73.08935415 29.76923967 73.07539303 25.9375 73.0625 C17.378125 73.041875 8.81875 73.02125 0 73 C0 48.91 0 24.82 0 0 Z " fill="#E5E7EC" transform="translate(783,562)"/>
<path d="M0 0 C8.559375 -0.020625 17.11875 -0.04125 25.9375 -0.0625 C28.64316162 -0.071604 31.34882324 -0.08070801 34.13647461 -0.09008789 C36.26676382 -0.09300685 38.39705358 -0.09555545 40.52734375 -0.09765625 C41.64500122 -0.10277222 42.76265869 -0.10788818 43.91418457 -0.11315918 C45.49761658 -0.11334045 45.49761658 -0.11334045 47.11303711 -0.11352539 C48.03459091 -0.115746 48.95614471 -0.11796661 49.90562439 -0.12025452 C52 0 52 0 53 1 C53.09960152 3.20324974 53.12799757 5.4097349 53.12939453 7.61523438 C53.13114685 8.30627762 53.13289917 8.99732086 53.13470459 9.70930481 C53.13912254 12.00414507 53.13618533 14.29890889 53.1328125 16.59375 C53.13348556 18.18176285 53.13445559 19.76977559 53.13571167 21.35778809 C53.13718857 24.6901955 53.13503436 28.02257616 53.13037109 31.35498047 C53.1246738 35.6359851 53.12795285 39.91692705 53.13394356 44.19792938 C53.1375494 47.47833736 53.13641048 50.75873037 53.13381577 54.03913879 C53.13314656 55.6180675 53.1339747 57.19699754 53.13629532 58.77592468 C53.13882223 60.97890853 53.13498075 63.18178949 53.12939453 65.38476562 C53.12859894 66.64083618 53.12780334 67.89690674 53.12698364 69.19104004 C53 72 53 72 52 73 C50.37325222 73.09340434 48.74245949 73.11745171 47.11303711 73.11352539 C46.05741577 73.11340454 45.00179443 73.11328369 43.91418457 73.11315918 C42.7965271 73.10804321 41.67886963 73.10292725 40.52734375 73.09765625 C39.50612427 73.09664917 38.48490479 73.09564209 37.43273926 73.09460449 C33.60098149 73.08935415 29.76923967 73.07539303 25.9375 73.0625 C17.378125 73.041875 8.81875 73.02125 0 73 C0 48.91 0 24.82 0 0 Z " fill="#E5E7EC" transform="translate(365,562)"/>
<path d="M0 0 C8.559375 -0.020625 17.11875 -0.04125 25.9375 -0.0625 C28.64316162 -0.071604 31.34882324 -0.08070801 34.13647461 -0.09008789 C36.26676382 -0.09300685 38.39705358 -0.09555545 40.52734375 -0.09765625 C41.64500122 -0.10277222 42.76265869 -0.10788818 43.91418457 -0.11315918 C45.49761658 -0.11334045 45.49761658 -0.11334045 47.11303711 -0.11352539 C48.03459091 -0.115746 48.95614471 -0.11796661 49.90562439 -0.12025452 C52 0 52 0 53 1 C53.09960152 3.20324974 53.12799757 5.4097349 53.12939453 7.61523438 C53.13114685 8.30627762 53.13289917 8.99732086 53.13470459 9.70930481 C53.13912254 12.00414507 53.13618533 14.29890889 53.1328125 16.59375 C53.13348556 18.18176285 53.13445559 19.76977559 53.13571167 21.35778809 C53.13718857 24.6901955 53.13503436 28.02257616 53.13037109 31.35498047 C53.1246738 35.6359851 53.12795285 39.91692705 53.13394356 44.19792938 C53.1375494 47.47833736 53.13641048 50.75873037 53.13381577 54.03913879 C53.13314656 55.6180675 53.1339747 57.19699754 53.13629532 58.77592468 C53.13882223 60.97890853 53.13498075 63.18178949 53.12939453 65.38476562 C53.12859894 66.64083618 53.12780334 67.89690674 53.12698364 69.19104004 C53 72 53 72 52 73 C50.37325222 73.09340434 48.74245949 73.11745171 47.11303711 73.11352539 C46.05741577 73.11340454 45.00179443 73.11328369 43.91418457 73.11315918 C42.7965271 73.10804321 41.67886963 73.10292725 40.52734375 73.09765625 C39.50612427 73.09664917 38.48490479 73.09564209 37.43273926 73.09460449 C33.60098149 73.08935415 29.76923967 73.07539303 25.9375 73.0625 C17.378125 73.041875 8.81875 73.02125 0 73 C0 48.91 0 24.82 0 0 Z " fill="#E6E8ED" transform="translate(198,562)"/>
<path d="M0 0 C17.49 0 34.98 0 53 0 C53 23.76 53 47.52 53 72 C35.51 72 18.02 72 0 72 C0 48.24 0 24.48 0 0 Z " fill="#E9EBF0" transform="translate(532,407)"/>
<path d="M0 0 C17.49 0 34.98 0 53 0 C53 23.76 53 47.52 53 72 C35.51 72 18.02 72 0 72 C0 48.24 0 24.48 0 0 Z " fill="#E9EBF0" transform="translate(198,407)"/>
<path d="M0 0 C17.49 0 34.98 0 53 0 C53 23.76 53 47.52 53 72 C35.51 72 18.02 72 0 72 C0 48.24 0 24.48 0 0 Z " fill="#E9EBF0" transform="translate(114,407)"/>
<path d="M0 0 C17.49 0 34.98 0 53 0 C53 23.76 53 47.52 53 72 C35.51 72 18.02 72 0 72 C0 48.24 0 24.48 0 0 Z " fill="#E9EBF0" transform="translate(866,407)"/>
<path d="M0 0 C17.49 0 34.98 0 53 0 C53 23.76 53 47.52 53 72 C35.51 72 18.02 72 0 72 C0 48.24 0 24.48 0 0 Z " fill="#E8EAEF" transform="translate(699,407)"/>
<path d="M0 0 C17.49 0 34.98 0 53 0 C53 23.76 53 47.52 53 72 C35.51 72 18.02 72 0 72 C0 48.24 0 24.48 0 0 Z " fill="#E8EAF0" transform="translate(448,407)"/>
<path d="M0 0 C17.16 0 34.32 0 52 0 C52 23.76 52 47.52 52 72 C34.84 72 17.68 72 0 72 C0 48.24 0 24.48 0 0 Z " fill="#EAECF2" transform="translate(365,407)"/>
<path d="M0 0 C17.16 0 34.32 0 52 0 C52 23.76 52 47.52 52 72 C34.84 72 17.68 72 0 72 C0 48.24 0 24.48 0 0 Z " fill="#EAECF1" transform="translate(282,407)"/>
<path d="M0 0 C17.16 0 34.32 0 52 0 C52 23.76 52 47.52 52 72 C34.84 72 17.68 72 0 72 C0 48.24 0 24.48 0 0 Z " fill="#EBEDF2" transform="translate(783,407)"/>
<path d="M0 0 C17.16 0 34.32 0 52 0 C52 23.43 52 46.86 52 71 C34.84 71 17.68 71 0 71 C0 47.57 0 24.14 0 0 Z " fill="#EAECF1" transform="translate(533,563)"/>
<path d="M0 0 C16.83 0 33.66 0 51 0 C51 23.76 51 47.52 51 72 C34.17 72 17.34 72 0 72 C0 48.24 0 24.48 0 0 Z " fill="#EAEDF2" transform="translate(617,407)"/>
<path d="M0 0 C16.83 0 33.66 0 51 0 C51 23.43 51 46.86 51 71 C34.17 71 17.34 71 0 71 C0 47.57 0 24.14 0 0 Z " fill="#EBEDF2" transform="translate(617,563)"/>
<path d="M0 0 C11.96075236 -0.04626639 23.92148356 -0.08184014 35.88230705 -0.10362434 C41.43573026 -0.11407774 46.98909241 -0.12826523 52.54248047 -0.15087891 C57.89816008 -0.17255192 63.25378082 -0.1845569 68.60950089 -0.18975449 C70.65651502 -0.19346023 72.7035258 -0.20069624 74.75051498 -0.21146011 C77.60962733 -0.22590142 80.46849399 -0.22798104 83.32763672 -0.22705078 C84.60725281 -0.23783661 84.60725281 -0.23783661 85.91271973 -0.24884033 C91.77189568 -0.22810432 91.77189568 -0.22810432 94 2 C93 3 93 3 90.97050476 3.12025452 C90.07878067 3.11803391 89.18705658 3.11581329 88.26831055 3.11352539 C87.26023849 3.11344986 86.25216644 3.11337433 85.21354675 3.11329651 C84.11569351 3.10813522 83.01784027 3.10297394 81.88671875 3.09765625 C80.7656221 3.0962413 79.64452545 3.09482635 78.48945618 3.09336853 C74.88877751 3.08775061 71.28815998 3.07520455 67.6875 3.0625 C65.26888111 3.05748648 62.85026124 3.05292332 60.43164062 3.04882812 C55.09122473 3.03897243 49.75084053 3.02474448 44.41044617 3.00672913 C42.27363793 3.0007639 40.13681657 3 38 3 C27.66666667 3 17.33333333 3 7 3 C7 2.67 7 2.34 7 2 C4.69 2 2.38 2 0 2 C0 1.34 0 0.68 0 0 Z " fill="#212529" transform="translate(52,323)"/>
<path d="M0 0 C1.72162331 0.00187264 3.44324717 0.00329252 5.16487122 0.00428772 C9.62476153 0.00804644 14.08461756 0.01781709 18.54449463 0.0289917 C23.12405941 0.03935155 27.70362992 0.04381606 32.28320312 0.04882812 C41.21616063 0.05944769 50.14909305 0.07644061 59.08203125 0.09765625 C55.87126724 2.66246163 54.24729571 3.46653304 50.09765625 3.390625 C49.16308594 3.38095703 48.22851562 3.37128906 47.265625 3.36132812 C46.29753906 3.33619141 45.32945312 3.31105469 44.33203125 3.28515625 C43.34847656 3.27162109 42.36492187 3.25808594 41.3515625 3.24414062 C38.9278271 3.20884351 36.5052098 3.15953679 34.08203125 3.09765625 C34.08203125 2.76765625 34.08203125 2.43765625 34.08203125 2.09765625 C32.43628559 2.07077474 30.79041712 2.05131502 29.14453125 2.03515625 C28.22800781 2.02355469 27.31148438 2.01195312 26.3671875 2 C24.11609798 1.83816576 24.11609798 1.83816576 23.08203125 3.09765625 C21.21022185 3.19152006 19.33485065 3.21509429 17.46069336 3.21118164 C16.25952377 3.21110611 15.05835419 3.21103058 13.82078552 3.21095276 C12.51352005 3.20579147 11.20625458 3.20063019 9.859375 3.1953125 C8.51558993 3.19344823 7.17180418 3.19202437 5.82801819 3.19102478 C2.28520848 3.18720027 -1.25756045 3.17737057 -4.800354 3.1663208 C-8.41312102 3.15610524 -12.02589459 3.15152685 -15.63867188 3.14648438 C-22.73178755 3.13574823 -29.82487549 3.11867261 -36.91796875 3.09765625 C-37.24796875 2.43765625 -37.57796875 1.77765625 -37.91796875 1.09765625 C-25.26385595 0.31721688 -12.6765899 -0.04154058 0 0 Z " fill="#212529" transform="translate(202.91796875,322.90234375)"/>
<path d="M0 0 C4.29 0.33 8.58 0.66 13 1 C13 1.33 13 1.66 13 2 C9.37 2 5.74 2 2 2 C2 24.44 2 46.88 2 70 C1.34 70 0.68 70 0 70 C0 46.9 0 23.8 0 0 Z " fill="#F3F5F8" transform="translate(282,563)"/>
<path d="M0 0 C0.05789006 3.45826342 0.09355821 6.91640293 0.125 10.375 C0.14175781 11.35984375 0.15851563 12.3446875 0.17578125 13.359375 C0.18222656 14.30039062 0.18867188 15.24140625 0.1953125 16.2109375 C0.20578613 17.08024902 0.21625977 17.94956055 0.22705078 18.84521484 C0 21 0 21 -2 23 C-2 16.07 -2 9.14 -2 2 C-5.3 2 -8.6 2 -12 2 C-12 1.67 -12 1.34 -12 1 C-10.37512529 0.83211627 -8.75009558 0.66573213 -7.125 0.5 C-6.22007812 0.4071875 -5.31515625 0.314375 -4.3828125 0.21875 C-2 0 -2 0 0 0 Z " fill="#F5F8FB" transform="translate(333,407)"/>
<path d="M0 0 C2 3 2 3 1.75 6.625 C1.5025 7.73875 1.255 8.8525 1 10 C0.01 10.495 0.01 10.495 -1 11 C-1.125 3.375 -1.125 3.375 0 0 Z " fill="#494C51" transform="translate(1011,681)"/>
<path d="M0 0 C2.97 0 5.94 0 9 0 C9 0.66 9 1.32 9 2 C7.329375 2.2165625 7.329375 2.2165625 5.625 2.4375 C2.17857953 2.78372035 2.17857953 2.78372035 0 4 C0 2.68 0 1.36 0 0 Z " fill="#F2F5F9" transform="translate(366,563)"/>
<path d="M0 0 C2.97 0 5.94 0 9 0 C9 0.66 9 1.32 9 2 C5.35959446 3.21346851 3.64040554 3.21346851 0 2 C0 1.34 0 0.68 0 0 Z " fill="#22272B" transform="translate(329,323)"/>
</svg>
